<svg width="159" height="159" viewBox="0 0 159 159" fill="none" xmlns="http://www.w3.org/2000/svg">
<circle cx="79.5" cy="79.5" r="79.5" fill="#DA1E2E"/>
<path d="M73.5323 70.4483C71.829 70.4483 70.4483 71.829 70.4483 73.5323V83.8125C70.4483 85.5158 71.829 86.8965 73.5323 86.8965H83.8125C85.5158 86.8965 86.8965 85.5158 86.8965 83.8125V73.5323C86.8965 71.829 85.5158 70.4483 83.8125 70.4483H73.5323Z" fill="white"/>
<path fill-rule="evenodd" clip-rule="evenodd" d="M70.4483 62.2241C65.9062 62.2241 62.2241 65.9062 62.2241 70.4483V86.8965C62.2241 91.4386 65.9062 95.1207 70.4483 95.1207H86.8965C91.4386 95.1207 95.1207 91.4386 95.1207 86.8965V70.4483C95.1207 65.9062 91.4386 62.2241 86.8965 62.2241H70.4483ZM66.3362 70.4483C66.3362 68.1772 68.1772 66.3362 70.4483 66.3362H86.8965C89.1676 66.3362 91.0086 68.1772 91.0086 70.4483V86.8965C91.0086 89.1676 89.1676 91.0086 86.8965 91.0086H70.4483C68.1772 91.0086 66.3362 89.1676 66.3362 86.8965V70.4483Z" fill="white"/>
<path d="M73.5323 70.4483C71.829 70.4483 70.4483 71.829 70.4483 73.5323V83.8125C70.4483 85.5158 71.829 86.8965 73.5323 86.8965H83.8125C85.5158 86.8965 86.8965 85.5158 86.8965 83.8125V73.5323C86.8965 71.829 85.5158 70.4483 83.8125 70.4483H73.5323Z" stroke="white" stroke-width="2"/>
<path fill-rule="evenodd" clip-rule="evenodd" d="M70.4483 62.2241C65.9062 62.2241 62.2241 65.9062 62.2241 70.4483V86.8965C62.2241 91.4386 65.9062 95.1207 70.4483 95.1207H86.8965C91.4386 95.1207 95.1207 91.4386 95.1207 86.8965V70.4483C95.1207 65.9062 91.4386 62.2241 86.8965 62.2241H70.4483ZM66.3362 70.4483C66.3362 68.1772 68.1772 66.3362 70.4483 66.3362H86.8965C89.1676 66.3362 91.0086 68.1772 91.0086 70.4483V86.8965C91.0086 89.1676 89.1676 91.0086 86.8965 91.0086H70.4483C68.1772 91.0086 66.3362 89.1676 66.3362 86.8965V70.4483Z" stroke="white" stroke-width="2"/>
</svg>
