<svg width="24" height="149" viewBox="0 0 24 149" fill="none" xmlns="http://www.w3.org/2000/svg">
<path d="M5.9319 141.272C5.45854 143.166 6.89062 145 8.84233 145H15.1577C17.1094 145 18.5415 143.166 18.0681 141.272L15.5681 131.272C15.2342 129.937 14.0343 129 12.6577 129H11.3423C9.96573 129 8.76578 129.937 8.4319 131.272L5.9319 141.272Z" fill="#0F67FE"/>
<path d="M5.9319 7.7276C5.45854 5.83416 6.89062 4 8.84233 4H15.1577C17.1094 4 18.5415 5.83417 18.0681 7.72761L15.5681 17.7276C15.2342 19.0631 14.0343 20 12.6577 20H11.3423C9.96573 20 8.76578 19.0631 8.4319 17.7276L5.9319 7.7276Z" fill="#0F67FE"/>
<path d="M-5.96046e-08 121H4C8.41828 121 12 117.418 12 113V35C12 30.5817 8.41828 27 4 27H-5.96046e-08" stroke="#0F67FE" stroke-width="4"/>
<path d="M24 121H20C15.5817 121 12 117.418 12 113V35C12 30.5817 15.5817 27 20 27H24" stroke="#0F67FE" stroke-width="4"/>
</svg>
